<?xml version="1.0" standalone="no"?>
<!DOCTYPE svg PUBLIC "-//W3C//DTD SVG 20010904//EN"
 "http://www.w3.org/TR/2001/REC-SVG-20010904/DTD/svg10.dtd">
<svg version="1.0" xmlns="http://www.w3.org/2000/svg"
 width="256.000000pt" height="256.000000pt" viewBox="0 0 256.000000 256.000000"
 preserveAspectRatio="xMidYMid meet">
<metadata>
Created by potrace 1.14, written by Peter Selinger 2001-2017
</metadata>
<g transform="translate(0.000000,256.000000) scale(0.100000,-0.100000)"
fill="#000000" stroke="none">
<path d="M993 2285 c-99 -27 -325 -154 -417 -236 -54 -47 -163 -184 -191 -239
-53 -105 -58 -141 -52 -424 7 -352 25 -428 141 -582 99 -133 234 -238 463
-363 118 -65 143 -75 250 -97 102 -20 146 -24 318 -24 216 0 258 6 342 48 101
49 206 177 263 323 80 201 -55 409 -265 409 -108 0 -188 -45 -266 -150 l-27
-35 -83 1 c-104 0 -174 17 -264 62 -138 69 -231 145 -259 213 -18 43 -32 246
-22 313 6 37 16 56 45 84 56 54 155 109 211 117 85 12 472 -48 603 -94 114
-39 160 -44 230 -26 114 30 185 102 214 219 14 57 14 68 -1 124 -30 118 -107
194 -255 251 -81 31 -272 73 -414 91 -48 6 -111 15 -139 20 -78 15 -363 11
-425 -5z"/>
</g>
</svg>
